<?xml version="1.0" encoding="UTF-8"?>
<svg width="837px" height="274px" viewBox="0 0 837 274" version="1.1" xmlns="http://www.w3.org/2000/svg" xmlns:xlink="http://www.w3.org/1999/xlink">
    <title>LogoOutline</title>
    <defs>
        <polygon id="path-1" points="207.788085 104.519267 614.757143 104.519267 661.986374 66.7235329 818 66.7235329 836.301387 180.787659 824.9446 239.106109 580.199671 277 80.6039652 266 -8.73485951e-16 222.347645 6.03931922 97.8689374 87.4646902 40.8654604 153.403118 75.5944503"></polygon>
    </defs>
    <g id="LogoOutline" stroke="none" stroke-width="1" fill="none" fill-rule="evenodd">
        <mask id="mask-2" fill="white">
            <use xlink:href="#path-1"></use>
        </mask>
        <g id="Path-2"></g>
        <g id="alderstjek" mask="url(#mask-2)" fill="#A870EB" fill-rule="nonzero">
            <g transform="translate(7.293, 80.051)">
                <path d="M48.62,41.327 C21.692,41.327 0,63.206 0,89.947 C0,116.688 21.692,138.38 48.62,138.38 C53.482,138.38 58.344,137.632 63.019,136.323 C68.255,134.64 71.06,129.217 69.377,124.168 C67.881,118.932 62.458,116.127 57.222,117.81 C54.417,118.558 51.425,119.119 48.62,119.119 C32.538,119.119 19.448,106.029 19.448,89.947 C19.448,73.865 32.538,60.775 48.62,60.775 C64.515,60.775 77.605,73.865 77.605,89.947 L77.605,135.949 L97.053,135.949 L97.053,89.947 C97.053,63.206 75.361,41.327 48.62,41.327 Z" id="Path"></path>
                <polygon id="Path" points="109.288 135.949 128.736 135.949 128.736 0 109.288 0"></polygon>
                <path d="M217.267,0 L217.267,89.947 C217.267,106.029 204.177,119.119 188.282,119.119 C172.2,119.119 159.11,106.029 159.11,89.947 C159.11,73.865 172.2,60.775 188.282,60.775 C191.087,60.775 194.079,61.336 196.884,62.084 C202.12,63.767 207.543,60.962 209.039,55.726 C210.722,50.677 207.917,45.254 202.681,43.571 C198.006,42.075 193.144,41.327 188.282,41.327 C161.354,41.327 139.662,63.206 139.662,89.947 C139.662,116.688 161.354,138.38 188.282,138.38 C215.023,138.38 236.715,116.688 236.715,89.947 L236.715,0 L217.267,0 Z" id="Path"></path>
                <path d="M274.382,89.947 C274.382,95.37 278.683,99.671 284.106,99.671 L342.263,99.671 L342.263,89.947 C342.263,63.206 320.571,41.327 293.83,41.327 C266.902,41.327 245.21,63.206 245.21,89.947 C245.21,116.688 266.902,138.38 293.83,138.38 C306.172,138.38 318.514,133.705 328.051,124.168 L314.4,110.517 C308.603,116.127 301.123,119.119 293.83,119.119 C277.748,119.119 264.658,106.029 264.658,89.947 C264.658,73.865 277.748,60.775 293.83,60.775 C306.359,60.775 317.205,69.003 321.132,80.223 L284.106,80.223 C278.683,80.223 274.382,84.524 274.382,89.947 Z" id="Path"></path>
                <path d="M399.378,41.327 C372.637,41.327 350.758,63.019 350.758,89.947 L350.758,135.949 L370.206,135.949 L370.206,89.947 C370.206,73.865 383.296,60.775 399.378,60.775 C402.744,60.775 406.11,61.336 409.289,62.458 L418.078,45.067 C412.281,42.636 405.923,41.327 399.378,41.327 Z" id="Path"></path>
                <path d="M460.42,80.41 C453.314,78.54 435.549,76.109 437.793,67.881 C440.785,59.653 454.062,60.214 458.363,60.775 C468.835,61.149 480.99,67.507 491.088,72.743 L497.446,54.043 C488.096,49.181 472.575,41.327 457.241,41.327 C439.663,41.327 418.906,49.555 418.345,69.003 C420.028,90.508 438.541,94.622 455.558,99.297 C460.233,100.419 480.429,104.533 477.998,112.013 C471.079,129.03 437.793,113.322 424.89,106.777 L418.532,125.664 C427.882,130.526 443.403,138.38 458.737,138.38 C467.152,138.38 475.754,136.51 482.299,133.331 C492.21,128.469 497.633,120.428 497.633,110.704 C495.95,89.199 477.437,85.085 460.42,80.41 Z" id="Path"></path>
                <path d="M569.147,117.997 C551.382,121.363 535.113,106.777 534.926,89.386 L534.926,63.206 L569.521,63.206 L569.521,43.758 L534.926,43.758 L534.926,9.537 L515.478,9.537 L515.478,43.758 L501.079,43.758 L501.079,63.206 L515.478,63.206 L515.478,89.386 C517.535,122.111 547.642,144.738 577.749,135.949 L569.147,117.997 Z" id="Path"></path>
                <path d="M583.479362,43.7433088 L583.479362,133.316309 C583.479362,150.707309 569.267362,165.106309 551.876362,165.106309 L551.876362,184.554309 C579.926362,184.367309 602.740362,161.740309 602.927362,133.316309 L602.927362,43.7433088 L583.479362,43.7433088 Z" id="Shape"></path>
                <path d="M644.107,89.947 C644.107,95.37 648.408,99.671 653.831,99.671 L711.988,99.671 L711.988,89.947 C711.988,63.206 690.296,41.327 663.555,41.327 C636.627,41.327 614.935,63.206 614.935,89.947 C614.935,116.688 636.627,138.38 663.555,138.38 C675.897,138.38 688.239,133.705 697.776,124.168 L684.125,110.517 C678.328,116.127 670.848,119.119 663.555,119.119 C647.473,119.119 634.383,106.029 634.383,89.947 C634.383,73.865 647.473,60.775 663.555,60.775 C676.084,60.775 686.93,69.003 690.857,80.223 L653.831,80.223 C648.408,80.223 644.107,84.524 644.107,89.947 Z" id="Path"></path>
                <path d="M771.16,87.516 L807.064,43.758 L782.006,43.758 L739.931,94.996 L739.931,0 L720.483,0 L720.483,135.949 L739.931,135.949 C739.931,120.054 753.021,106.964 769.103,106.964 C784.998,106.964 798.088,120.054 798.088,135.949 L817.536,135.949 C817.536,109.956 796.966,88.638 771.16,87.516 Z" id="Path"></path>
            </g>
        </g>
        <g id="nem" transform="translate(224.5732, 9.9158)" fill="#B7D935" fill-rule="nonzero">
            <path d="M48.62,0.00951663316 C21.692,0.00951663316 0,21.8885166 0,48.6295166 L0,94.6315166 L19.448,94.6315166 L19.448,48.6295166 C19.448,32.5475166 32.538,19.4575166 48.62,19.4575166 C64.515,19.4575166 77.605,32.5475166 77.605,48.6295166 L77.605,94.6315166 L97.053,94.6315166 L97.053,48.6295166 C97.053,21.8885166 75.361,0.00951663316 48.62,0.00951663316 Z" id="Path"></path>
            <path d="M144.433444,48.62 C144.433444,54.043 148.734444,58.344 154.157444,58.344 L212.314444,58.344 L212.314444,48.62 C212.314444,21.879 190.622444,0 163.881444,0 C136.953444,0 115.261444,21.879 115.261444,48.62 C115.261444,75.361 136.953444,97.053 163.881444,97.053 C176.223444,97.053 188.565444,92.378 198.102444,82.841 L184.451444,69.19 C178.654444,74.8 171.174444,77.792 163.881444,77.792 C147.799444,77.792 134.709444,64.702 134.709444,48.62 C134.709444,32.538 147.799444,19.448 163.881444,19.448 C176.410444,19.448 187.256444,27.676 191.183444,38.896 L154.157444,38.896 C148.734444,38.896 144.433444,43.197 144.433444,48.62 Z" id="Path"></path>
            <path d="M341.948444,0 C328.110444,0 315.955444,6.358 307.914444,16.269 C299.873444,6.358 287.718444,0 273.880444,0 C249.944444,0 230.309444,19.635 230.309444,43.758 L230.309444,94.622 L249.757444,94.622 L249.757444,43.758 C249.757444,30.294 260.603444,19.448 273.880444,19.448 C287.344444,19.448 298.190444,30.294 298.190444,43.758 L298.190444,94.622 L317.638444,94.622 L317.638444,43.758 C317.638444,30.294 328.484444,19.448 341.948444,19.448 C355.225444,19.448 366.258444,30.294 366.258444,43.758 L366.258444,94.622 L385.519444,94.622 L385.519444,43.758 C385.519444,19.635 366.071444,0 341.948444,0 Z" id="Path"></path>
        </g>
    </g>
</svg>